<svg width="200" height="200" viewBox="0 0 200 200" fill="none" xmlns="http://www.w3.org/2000/svg">
  <rect width="200" height="200" fill="#F3F4F6"/>
  <path d="M60 80C60 68.9543 68.9543 60 80 60H120C131.046 60 140 68.9543 140 80V120C140 131.046 131.046 140 120 140H80C68.9543 140 60 131.046 60 80Z" fill="#D1D5DB"/>
  <path d="M70 90C70 85.5817 73.5817 82 78 82H122C126.418 82 130 85.5817 130 90V110C130 114.418 126.418 118 122 118H78C73.5817 118 70 114.418 70 110V90Z" fill="#9CA3AF"/>
  <circle cx="85" cy="95" r="3" fill="#6B7280"/>
  <path d="M70 125L85 110L95 120L110 105L130 125V130C130 134.418 126.418 138 122 138H78C73.5817 138 70 134.418 70 130V125Z" fill="#9CA3AF"/>
  <text x="100" y="170" text-anchor="middle" font-family="Arial, sans-serif" font-size="14" fill="#6B7280">Image not available</text>
</svg>